<svg xmlns="http://www.w3.org/2000/svg" viewBox="0 0 24 24" width="24px" height="24px">
  <circle cx="12" cy="12" r="11" fill="#FFFFFF" stroke="#000000" stroke-width="2"/>
  <g transform="translate(3, 3) scale(0.75)">
    <path d="M19.3 6.63c-.58-.45-1.28-.73-2.05-.78V4c0-.55-.45-1-1-1H7.75c-.55 0-1 .45-1 1v1.85c-.77.05-1.47.33-2.05.78-1.56 1.21-1.91 3.44-1.15 5.27L2 14v2h2v5h2v-5h12v5h2v-5h2v-2l-1.55-2.1c.76-1.83.41-4.06-1.15-5.27zM10 5h4v2h-4V5zM5.13 10.9c.35-.9.98-1.6 1.72-2.06l.75 2.46h8.8l.75-2.46c.74.46 1.37 1.16 1.72 2.06.36.93.3 1.94-.16 2.82L17.2 14H6.8l-1.51-.28c-.46-.88-.52-1.89-.16-2.82z" fill="#000000"/>
  </g>
</svg>
